HIERARCHY
ROOT joint_0
{
	OFFSET 0.000000 0.000000 0.000000
	CHANNELS 6 Xposition Yposition Zposition Zrotation Yrotation Xrotation 
	JOINT joint_1
	{
		OFFSET 5.091736 1.614004 124.993042
		CHANNELS 3 Zrotation Yrotation Xrotation
		JOINT joint_2
		{
			OFFSET -7.754517 4.363039 113.797974
			CHANNELS 3 Zrotation Yrotation Xrotation
			JOINT joint_3
			{
				OFFSET -8.706238 5.370684 113.558960
				CHANNELS 3 Zrotation Yrotation Xrotation
				JOINT joint_4
				{
					OFFSET 2.800659 5.843341 158.209106
					CHANNELS 3 Zrotation Yrotation Xrotation
					JOINT joint_5
					{
						OFFSET 20.525452 8.617594 92.185913
						CHANNELS 3 Zrotation Yrotation Xrotation
						End Site
						{
							OFFSET 0.000000 0.000000 0.000000
						}
					}
				}
				JOINT joint_6
				{
					OFFSET -4.183167 -30.671114 90.057007
					CHANNELS 3 Zrotation Yrotation Xrotation
					JOINT joint_7
					{
						OFFSET -24.729675 -138.200195 -6.097900
						CHANNELS 3 Zrotation Yrotation Xrotation
						JOINT joint_8
						{
							OFFSET 16.966858 -51.567780 -315.633057
							CHANNELS 3 Zrotation Yrotation Xrotation
							JOINT joint_9
							{
								OFFSET 129.835388 -40.459091 176.646973
								CHANNELS 3 Zrotation Yrotation Xrotation
								End Site
								{
									OFFSET 0.000000 0.000000 0.000000
								}
							}
						}
					}
				}
				JOINT joint_10
				{
					OFFSET 7.338745 37.199406 87.346069
					CHANNELS 3 Zrotation Yrotation Xrotation
					JOINT joint_11
					{
						OFFSET 20.327698 137.488367 -20.779053
						CHANNELS 3 Zrotation Yrotation Xrotation
						JOINT joint_12
						{
							OFFSET 150.763062 48.206573 -278.419922
							CHANNELS 3 Zrotation Yrotation Xrotation
							JOINT joint_13
							{
								OFFSET 12.571289 -162.355251 152.253906
								CHANNELS 3 Zrotation Yrotation Xrotation
								End Site
								{
									OFFSET 0.000000 0.000000 0.000000
								}
							}
						}
					}
				}
			}
		}
	}
	JOINT joint_14
	{
		OFFSET -7.600342 -77.970001 -95.010986
		CHANNELS 3 Zrotation Yrotation Xrotation
		JOINT joint_15
		{
			OFFSET -2.666199 -21.455009 -443.700989
			CHANNELS 3 Zrotation Yrotation Xrotation
			JOINT joint_16
			{
				OFFSET -22.487976 -19.310196 -481.059006
				CHANNELS 3 Zrotation Yrotation Xrotation
				JOINT joint_17
				{
					OFFSET 177.776611 65.723053 -82.445997
					CHANNELS 3 Zrotation Yrotation Xrotation
					End Site
					{
						OFFSET 0.000000 0.000000 0.000000
					}
				}
			}
		}
	}
	JOINT joint_18
	{
		OFFSET 17.063904 75.900681 -95.447021
		CHANNELS 3 Zrotation Yrotation Xrotation
		JOINT joint_19
		{
			OFFSET -21.510803 8.101997 -443.629944
			CHANNELS 3 Zrotation Yrotation Xrotation
			JOINT joint_20
			{
				OFFSET -7.473022 -28.501774 -481.230011
				CHANNELS 3 Zrotation Yrotation Xrotation
				JOINT joint_21
				{
					OFFSET 177.760559 -64.115177 -83.737001
					CHANNELS 3 Zrotation Yrotation Xrotation
					End Site
					{
						OFFSET 0.000000 0.000000 0.000000
					}
				}
			}
		}
	}
}
MOTION
Frames: 6
Frame Time: 0.016667
-502.081177 -34.438049 1108.369019 3.838260 -4.581250 5.911108 1.049203 7.370549 -8.282807 1.509739 -0.992194 1.549585 1.128797 1.416746 -1.298122 -0.044336 3.605475 -1.650246 0.000000 0.000000 0.000000 -3.171092 -5.485404 -0.247002 19.876932 -4.288685 -12.136203 16.180371 11.014208 -26.316891 0.000000 0.000000 0.000000 -4.437131 2.560725 -1.004484 5.262162 3.152952 4.426877 2.332908 2.135098 -0.781572 0.000000 0.000000 0.000000 -8.436598 -11.208394 -6.281652 -9.828513 25.884610 -10.613361 -12.418337 -9.266615 -1.902280 0.000000 0.000000 0.000000 3.319841 0.654102 -9.168518 2.864742 7.403421 5.176970 3.980363 -4.497575 0.224308 0.000000 0.000000 0.000000 
-501.718628 -34.734715 1108.250977 3.924885 -4.502467 5.913419 1.136484 7.874438 -8.224588 1.579770 -1.051541 1.580015 1.183863 1.540840 -1.308603 0.017564 3.262809 -1.776401 0.000000 0.000000 0.000000 -4.162149 -5.227461 -1.278076 20.099771 -4.782320 -10.411473 16.185845 10.864907 -26.658597 0.000000 0.000000 0.000000 -4.107840 2.340736 -1.305031 5.001753 2.787520 4.507937 2.162565 1.985386 -0.607280 0.000000 0.000000 0.000000 -8.456246 -11.331895 -6.288991 -9.846907 26.013364 -10.594295 -12.445501 -9.324545 -1.890944 0.000000 0.000000 0.000000 3.299371 0.587098 -9.110851 2.857368 7.401690 5.096046 3.973966 -4.548022 0.203334 0.000000 0.000000 0.000000 
-501.215637 -34.845394 1108.493042 4.142565 -4.382755 5.825025 1.324533 8.433654 -7.992905 1.735998 -1.081382 1.557709 1.335943 1.634408 -1.288935 0.115445 2.730555 -1.968030 0.000000 0.000000 0.000000 -3.584292 -4.367924 -1.445857 19.464774 -4.273796 -9.652499 15.622435 10.349501 -26.387624 0.000000 0.000000 0.000000 -3.600659 2.165025 -1.716056 4.689024 2.406232 4.620218 2.029744 1.880874 -0.270827 0.000000 0.000000 0.000000 -8.527463 -11.476840 -6.246217 -9.914613 26.149333 -10.514451 -12.506724 -9.322649 -1.917868 0.000000 0.000000 0.000000 3.205562 0.451539 -8.982088 2.781964 7.409053 5.032965 3.897812 -4.548737 0.167911 0.000000 0.000000 0.000000 
-500.627869 -34.861492 1108.988037 4.455116 -4.225987 5.666616 1.599236 9.070390 -7.611777 1.968309 -1.087942 1.512627 1.568644 1.714132 -1.267412 0.254653 2.038484 -2.262873 0.000000 0.000000 0.000000 -1.760660 -3.025936 -1.006894 18.139096 -3.027511 -9.394914 14.600005 9.509658 -25.612717 0.000000 0.000000 0.000000 -2.886490 1.995369 -2.273867 4.315229 1.959160 4.808592 1.896468 1.784351 0.220781 0.000000 0.000000 0.000000 -8.634528 -11.649745 -6.164228 -10.017598 26.302669 -10.381541 -12.592884 -9.283486 -1.970279 0.000000 0.000000 0.000000 3.055776 0.252335 -8.793847 2.655372 7.431863 4.982493 3.770448 -4.520914 0.118986 0.000000 0.000000 0.000000 
-499.205292 -34.827850 1109.843018 4.941388 -3.974829 5.489841 1.718875 9.496980 -7.158050 2.052930 -1.066131 1.465134 1.659316 1.756290 -1.230404 0.415690 1.367920 -2.669075 0.000000 0.000000 0.000000 0.172604 -2.031114 -0.427714 16.942530 -1.928626 -9.540804 13.720168 8.827858 -24.865693 0.000000 0.000000 0.000000 -2.285511 2.020623 -2.790018 4.247625 1.789662 4.893307 1.915262 1.808015 0.367906 0.000000 0.000000 0.000000 -8.824297 -11.792626 -6.029330 -10.193177 26.303796 -10.298472 -12.722431 -9.161018 -2.075219 0.000000 0.000000 0.000000 2.856564 0.031880 -8.580202 2.484740 7.353517 4.896389 3.580975 -4.398074 0.075886 0.000000 0.000000 0.000000 
-496.449066 -34.447849 1111.187012 5.654536 -3.574606 5.337685 1.508688 9.455138 -6.606135 1.810499 -1.003143 1.354813 1.443427 1.724795 -1.097918 0.569582 0.860071 -3.135242 0.000000 0.000000 0.000000 1.256679 -1.954688 -0.162716 16.539910 -1.616040 -10.177743 13.414610 8.859205 -24.463112 0.000000 0.000000 0.000000 -2.102437 2.516054 -3.114577 4.862371 2.309685 4.649964 2.326225 2.153937 -0.267149 0.000000 0.000000 0.000000 -9.149783 -11.899771 -5.834892 -10.488729 26.046241 -10.358957 -12.949839 -8.880438 -2.284334 0.000000 0.000000 0.000000 2.624933 -0.168556 -8.401250 2.285408 7.039211 4.756086 3.324229 -4.082323 0.071680 0.000000 0.000000 0.000000 
